<svg version="1.0" xmlns="http://www.w3.org/2000/svg"
 width="128.000000pt" height="128.000000pt" viewBox="0 0 128.000000 128.000000"
 preserveAspectRatio="xMidYMid meet">
<g transform="translate(0.000000,128.000000) scale(0.100000,-0.100000)"
fill="#000" stroke="none">
<path d="M733 1108 c-16 -22 -266 -906 -260 -921 8 -21 57 -31 72 -15 12 13
265 884 265 912 0 9 -12 21 -26 26 -33 13 -40 13 -51 -2z"/>
<path d="M170 815 l-175 -175 177 -177 178 -178 32 33 33 32 -145 145 -145
145 145 145 144 144 -29 31 c-16 16 -31 30 -34 30 -4 0 -85 -79 -181 -175z"/>
<path d="M895 960 l-29 -31 144 -144 145 -145 -145 -145 -145 -145 33 -32 32
-33 178 178 177 177 -175 175 c-96 96 -177 175 -181 175 -3 0 -18 -14 -34 -30z"/>
</g>
</svg>